<svg xmlns="http://www.w3.org/2000/svg" xmlns:xlink="http://www.w3.org/1999/xlink" width="500" zoomAndPan="magnify" viewBox="0 0 375 374.999991" height="500" preserveAspectRatio="xMidYMid meet" version="1.0"><defs><g/><clipPath id="d47cad6151"><path d="M 117.425781 47.75 L 257.675781 47.75 L 257.675781 188 L 117.425781 188 Z M 117.425781 47.75 " clip-rule="nonzero"/></clipPath><clipPath id="6d0b62cee8"><path d="M 177 48 L 257.675781 48 L 257.675781 142 L 177 142 Z M 177 48 " clip-rule="nonzero"/></clipPath><clipPath id="81633610e4"><path d="M 117.425781 89 L 191 89 L 191 187 L 117.425781 187 Z M 117.425781 89 " clip-rule="nonzero"/></clipPath><clipPath id="dfbd4179e2"><path d="M 89.871094 21.050781 L 284.871094 21.050781 L 284.871094 214.550781 L 89.871094 214.550781 Z M 89.871094 21.050781 " clip-rule="nonzero"/></clipPath></defs><rect x="-37.5" width="450" fill="#ffffff" y="-37.499999" height="449.999989" fill-opacity="1"/><rect x="-37.5" width="450" fill="#ffffff" y="-37.499999" height="449.999989" fill-opacity="1"/><g clip-path="url(#d47cad6151)"><path fill="#ffffff" d="M 117.425781 47.75 L 257.570312 47.75 L 257.570312 187.894531 L 117.425781 187.894531 Z M 117.425781 47.75 " fill-opacity="1" fill-rule="nonzero"/></g><g clip-path="url(#6d0b62cee8)"><path fill="#ffbd59" d="M 232.398438 125.953125 C 227.71875 127.886719 222.589844 128.953125 217.207031 128.953125 C 195.121094 128.953125 177.183594 111.011719 177.183594 88.925781 C 177.183594 66.839844 195.121094 48.902344 217.207031 48.902344 C 239.292969 48.902344 257.234375 66.839844 257.234375 88.925781 C 257.234375 100.78125 252.046875 111.460938 243.835938 118.804688 L 252.46875 141.003906 Z M 232.398438 125.953125 " fill-opacity="1" fill-rule="nonzero"/></g><path fill="#ffbd59" d="M 177.292969 85.675781 C 177.210938 86.738281 177.15625 87.804688 177.15625 88.898438 C 177.15625 102.101562 183.574219 113.816406 193.441406 121.132812 L 193.441406 153.195312 L 152.9375 153.195312 L 150.359375 175.421875 L 140.128906 153.195312 L 128.300781 153.195312 L 128.300781 85.675781 Z M 177.292969 85.675781 " fill-opacity="1" fill-rule="nonzero"/><path fill="#000b3b" d="M 224.886719 137.808594 L 243.386719 151.65625 C 244.675781 152.609375 246.441406 152.609375 247.730469 151.625 C 249.019531 150.644531 249.496094 148.9375 248.910156 147.449219 L 241.144531 127.492188 C 249.019531 119.589844 253.898438 108.6875 253.898438 96.664062 C 253.898438 72.585938 234.332031 53.019531 210.257812 53.019531 C 186.179688 53.019531 166.617188 72.585938 166.617188 96.664062 C 166.617188 120.738281 186.179688 140.304688 210.257812 140.304688 C 215.386719 140.332031 220.320312 139.433594 224.886719 137.808594 Z M 227.636719 130.828125 C 226.625 130.074219 225.28125 129.90625 224.101562 130.382812 C 219.84375 132.148438 215.160156 133.101562 210.285156 133.101562 C 190.1875 133.101562 173.875 116.785156 173.875 96.691406 C 173.875 76.59375 190.1875 60.28125 210.285156 60.28125 C 230.382812 60.28125 246.695312 76.59375 246.695312 96.691406 C 246.695312 107.480469 241.984375 117.207031 234.5 123.851562 C 233.378906 124.859375 232.988281 126.457031 233.550781 127.859375 L 237.613281 138.3125 Z M 227.636719 130.828125 " fill-opacity="1" fill-rule="nonzero"/><path fill="#000b3b" d="M 133.820312 145.824219 L 170.203125 145.824219 C 172.195312 145.824219 173.820312 144.199219 173.820312 142.210938 C 173.820312 140.21875 172.195312 138.59375 170.203125 138.59375 L 133.820312 138.59375 C 131.832031 138.59375 130.207031 140.21875 130.207031 142.210938 C 130.234375 144.226562 131.832031 145.824219 133.820312 145.824219 Z M 133.820312 130.269531 L 168.015625 130.269531 C 170.007812 130.269531 171.632812 128.644531 171.632812 126.652344 C 171.632812 124.664062 170.007812 123.039062 168.015625 123.039062 L 133.820312 123.039062 C 131.832031 123.039062 130.207031 124.664062 130.207031 126.652344 C 130.234375 128.644531 131.832031 130.269531 133.820312 130.269531 Z M 133.820312 114.710938 L 156.804688 114.710938 C 158.796875 114.710938 160.421875 113.085938 160.421875 111.097656 C 160.421875 109.105469 158.796875 107.480469 156.804688 107.480469 L 133.820312 107.480469 C 131.832031 107.480469 130.207031 109.105469 130.207031 111.097656 C 130.234375 113.085938 131.832031 114.710938 133.820312 114.710938 Z M 133.820312 114.710938 " fill-opacity="1" fill-rule="nonzero"/><path fill="#000b3b" d="M 227.355469 93.160156 L 204.371094 93.160156 C 202.378906 93.160156 200.753906 94.785156 200.753906 96.773438 C 200.753906 98.765625 202.378906 100.390625 204.371094 100.390625 L 227.355469 100.390625 C 229.34375 100.390625 230.96875 98.765625 230.96875 96.773438 C 230.96875 94.757812 229.34375 93.160156 227.355469 93.160156 Z M 227.355469 77.574219 L 193.160156 77.574219 C 191.167969 77.574219 189.542969 79.199219 189.542969 81.191406 C 189.542969 83.179688 191.167969 84.804688 193.160156 84.804688 L 227.355469 84.804688 C 229.34375 84.804688 230.96875 83.179688 230.96875 81.191406 C 230.96875 79.199219 229.34375 77.574219 227.355469 77.574219 Z M 227.355469 77.574219 " fill-opacity="1" fill-rule="nonzero"/><g clip-path="url(#81633610e4)"><path fill="#000b3b" d="M 173.960938 93.746094 C 174.042969 92.738281 173.707031 91.757812 173.007812 91 C 172.332031 90.273438 171.351562 89.851562 170.34375 89.851562 L 121.378906 89.851562 C 119.386719 89.851562 117.761719 91.476562 117.761719 93.46875 L 117.761719 160.960938 C 117.761719 162.949219 119.386719 164.578125 121.378906 164.578125 L 130.878906 164.578125 L 140.128906 184.699219 C 140.800781 186.160156 142.371094 187 143.96875 186.746094 C 145.566406 186.496094 146.800781 185.207031 146.996094 183.609375 L 149.210938 164.578125 C 158.796875 164.578125 186.488281 164.578125 186.488281 164.578125 C 188.476562 164.578125 190.105469 162.949219 190.105469 160.960938 L 190.105469 128.894531 C 190.105469 127.746094 189.570312 126.679688 188.648438 125.980469 C 179.648438 119.335938 173.820312 108.6875 173.820312 96.664062 C 173.847656 95.679688 173.875 94.699219 173.960938 93.746094 Z M 166.617188 97.054688 C 166.726562 110.621094 173.0625 122.730469 182.902344 130.660156 L 182.902344 157.34375 L 146.015625 157.34375 C 144.191406 157.34375 142.652344 158.71875 142.425781 160.539062 L 141.332031 169.984375 L 136.484375 159.445312 C 135.894531 158.15625 134.605469 157.34375 133.207031 157.34375 L 124.992188 157.34375 L 124.992188 97.054688 Z M 166.617188 97.054688 " fill-opacity="1" fill-rule="nonzero"/></g><g clip-path="url(#dfbd4179e2)"><path fill="#e30613" d="M 267.601562 56.242188 C 293.917969 91.246094 290.117188 156.445312 256.453125 186.296875 C 235.613281 204.765625 193.90625 218.105469 166.558594 213.429688 C 157.195312 211.824219 155.824219 208.796875 148.609375 204.960938 C 127.242188 193.601562 112.820312 183.773438 101.046875 161.425781 C 87.039062 134.863281 87.039062 111.4375 96.40625 83.519531 C 107.617188 50.15625 141.628906 29.378906 174.789062 22.539062 C 188.132812 19.789062 208.347656 21.699219 221.605469 25.273438 C 226.652344 26.628906 231.679688 30.042969 236.671875 32.070312 C 244.523438 35.269531 249.363281 34.363281 255.578125 41.40625 C 259.132812 45.4375 264.53125 52.167969 267.609375 56.25 Z M 191.363281 31.390625 L 185.902344 32.75 L 188.007812 33.996094 Z M 157.679688 36.847656 C 159.0625 37.050781 165.871094 35.863281 165.851562 34.574219 C 165.8125 31.542969 156.195312 32.085938 157.679688 36.847656 Z M 223.234375 33.214844 L 216.867188 32.300781 L 222.792969 35.007812 L 223.234375 33.207031 Z M 227.785156 35.933594 C 228.226562 35.574219 226.191406 33.523438 225.058594 34.125 C 224.617188 34.480469 226.652344 36.535156 227.785156 35.933594 Z M 225.957031 41.40625 C 226.253906 39.683594 224.894531 38.375 223.234375 38.683594 Z M 243.582031 153.152344 C 244.464844 154.058594 246.050781 154.050781 246.898438 154.882812 C 249 156.945312 249.667969 164.40625 253.796875 156.300781 C 261.011719 142.117188 265.285156 130.269531 264.261719 113.828125 C 263.277344 98.1875 249.320312 63.289062 236.300781 54.324219 C 215.839844 40.234375 190.5 37.332031 166.546875 42.542969 C 161.589844 43.621094 156.773438 47.660156 151.304688 47.804688 C 151.066406 48.902344 151.601562 49.4375 152.015625 50.277344 C 160.089844 66.5625 178.621094 81.695312 190.933594 95.175781 C 208.507812 114.433594 225.40625 134.53125 243.589844 153.160156 Z M 143.5625 50.539062 L 142.214844 51.878906 L 144.472656 55.0625 L 145.820312 53.722656 Z M 255.554688 51.457031 L 255.121094 51.886719 L 256.476562 53.246094 L 256.910156 52.8125 Z M 161.316406 72.386719 L 146.285156 55.097656 C 146.363281 56.242188 147.082031 59.304688 147.574219 60.011719 C 148.183594 60.875 149.601562 60.308594 150.144531 60.742188 C 150.644531 61.132812 153.261719 66.476562 154.007812 67.378906 C 154.984375 68.539062 159.671875 73.785156 161.316406 72.394531 Z M 259.207031 55.988281 L 259.207031 56.894531 C 259.800781 56.589844 259.800781 56.285156 259.207031 55.988281 Z M 267.855469 67.828125 C 266.726562 64.78125 264.148438 62.777344 261.929688 60.5625 C 262.21875 62.148438 263.421875 65.171875 264.328125 66.359375 C 265.464844 67.851562 265.90625 68.109375 267.855469 67.828125 Z M 129.972656 169.378906 C 133.992188 174.710938 145.421875 184.496094 151.355469 187.621094 C 154.1875 189.113281 157.230469 188.203125 159.859375 189.054688 C 162.929688 190.039062 166.625 193.09375 170.167969 193.40625 C 173.273438 193.6875 177.621094 191.683594 180.894531 191.703125 C 197.636719 191.796875 207.386719 190.265625 223.21875 184.011719 C 225.117188 183.257812 235.707031 178.816406 235.984375 177.628906 L 131.738281 64.222656 C 129.183594 64.007812 119.757812 78.902344 119.417969 82.410156 L 117.613281 80.601562 L 118.511719 84.242188 C 115.507812 82.453125 118.0625 85.109375 117.46875 87.203125 C 113.804688 99.988281 112.617188 105.046875 112.238281 118.414062 C 112.117188 122.621094 109.804688 128.328125 113.042969 132.09375 L 109.414062 128.453125 L 113.035156 143.019531 L 114.753906 142.722656 L 115.773438 145.769531 L 113.074219 144.835938 C 116.1875 149.332031 120.433594 159.464844 124.429688 162.675781 C 125.105469 163.21875 126.464844 162.707031 126.496094 163.03125 C 126.929688 167.707031 127.660156 166.289062 129.980469 169.371094 Z M 272.398438 77.867188 C 272.746094 76.316406 271.867188 75.210938 271.363281 73.898438 C 270.964844 72.84375 269.949219 69.847656 268.769531 69.667969 C 269.558594 72.367188 269.558594 76.460938 272.398438 77.867188 Z M 162.234375 73.3125 C 161.910156 75.40625 167.972656 84.25 169.058594 84.226562 L 171.320312 81.96875 L 162.242188 73.3125 Z M 266.03125 85.160156 C 265.355469 84.480469 262.34375 84.734375 263.3125 87.425781 C 264.4375 90.566406 267.226562 86.363281 266.03125 85.160156 Z M 177.265625 88.800781 C 174.636719 89.316406 177.757812 94.589844 179.070312 95.15625 C 182.910156 92.664062 180.773438 90.148438 177.265625 88.800781 Z M 113.507812 92.449219 L 113.507812 93.359375 C 114.101562 93.050781 114.101562 92.746094 113.507812 92.449219 Z M 171.332031 95.175781 L 171.332031 93.824219 C 171.332031 93.824219 169.523438 92.441406 169.523438 92.441406 L 169.523438 95.175781 C 169.523438 95.175781 171.332031 95.175781 171.332031 95.175781 Z M 277.859375 96.089844 L 277.859375 92.449219 L 276.96875 92.449219 L 276.96875 96.089844 Z M 113.050781 97.90625 L 113.050781 95.183594 L 112.160156 95.183594 L 112.160156 97.90625 Z M 188.625 103.382812 C 188.949219 100.960938 188.285156 98.824219 185.914062 97.914062 C 185.792969 99.9375 186.589844 102.59375 188.625 103.382812 Z M 110.328125 105.207031 C 112.660156 104.492188 112.152344 101.753906 112.136719 99.742188 C 109.804688 100.453125 110.3125 103.195312 110.328125 105.207031 Z M 189.53125 120.695312 C 189.21875 116.859375 186.734375 112.878906 184.523438 109.78125 C 184.769531 111.878906 185.269531 114.464844 186.109375 116.394531 C 186.523438 117.335938 188.449219 120.238281 189.53125 120.695312 Z M 110.3125 120.695312 C 110.769531 119.40625 110.695312 118.539062 110.609375 117.242188 C 110.539062 116.207031 110.8125 113.191406 109.421875 113.414062 Z M 202.285156 121.605469 C 203.859375 117.34375 202.207031 115.664062 198.65625 113.40625 Z M 200.460938 132.542969 L 197.289062 122.53125 L 194.109375 125.679688 L 200.453125 132.542969 Z M 101.214844 124.355469 L 99.402344 124.355469 L 99.402344 125.246094 L 101.214844 125.246094 Z M 275.128906 125.261719 C 271.070312 124.734375 274.824219 131.332031 274.238281 133.460938 C 275.460938 133.488281 275.730469 129.054688 275.738281 128.265625 C 275.738281 127.179688 275.273438 126.304688 275.128906 125.261719 Z M 210.5 126.171875 C 210.203125 127.835938 211.617188 132 213.660156 131.636719 C 217.113281 131.023438 210.746094 125.890625 210.5 126.171875 Z M 101.671875 127.078125 L 101.671875 127.988281 C 102.265625 127.679688 102.265625 127.375 101.671875 127.078125 Z M 225.660156 141.066406 C 223.8125 139.242188 220.785156 137.671875 219.140625 135.285156 C 218.453125 135.140625 218.546875 136.175781 218.699219 136.636719 C 219.445312 138.925781 222.757812 142.660156 223.191406 145.835938 L 228.601562 145.429688 L 233.273438 158.066406 L 238.722656 156.234375 C 234.796875 151.257812 230.136719 145.480469 225.667969 141.058594 Z M 274.222656 139.835938 L 274.222656 138.019531 C 274.222656 138.019531 272.40625 139.394531 272.40625 139.394531 L 274.222656 139.84375 Z M 211.390625 139.835938 C 206.175781 139.816406 211.042969 144.539062 212.304688 143.476562 Z M 222.320312 154.417969 C 222.945312 153.695312 219.859375 149.238281 218.691406 148.949219 C 218.28125 151.496094 220.300781 153.363281 222.320312 154.417969 Z M 240.53125 172.648438 L 239.171875 169.007812 L 237.816406 170.371094 L 240.519531 172.648438 Z M 256.011719 178.121094 L 254.195312 178.121094 L 254.195312 179.011719 L 256.011719 179.011719 Z M 146.285156 190.894531 L 145.851562 191.328125 L 148.117188 193.59375 L 148.550781 193.160156 Z M 153.117188 196.335938 C 153.558594 195.980469 151.523438 193.925781 150.390625 194.527344 C 149.949219 194.882812 151.984375 196.9375 153.117188 196.335938 Z M 221.410156 199.085938 L 219.597656 199.085938 L 219.597656 199.976562 L 221.410156 199.976562 Z M 184.988281 199.984375 L 170.421875 199.984375 C 170.355469 200.578125 171.625 201.808594 171.789062 201.808594 L 184.988281 201.808594 Z M 184.988281 199.984375 " fill-opacity="1" fill-rule="nonzero"/></g><path fill="#e30613" d="M 141.308594 177.632812 L 141.742188 177.199219 L 143.097656 178.558594 L 142.664062 178.988281 Z M 141.308594 177.632812 " fill-opacity="1" fill-rule="nonzero"/><g fill="#000b3b" fill-opacity="1"><g transform="translate(39.984377, 263.751165)"><g><path d="M 19.453125 0.734375 C 16.960938 0.734375 14.648438 0.289062 12.515625 -0.59375 C 10.378906 -1.488281 8.519531 -2.734375 6.9375 -4.328125 C 5.351562 -5.929688 4.125 -7.804688 3.25 -9.953125 C 2.375 -12.109375 1.9375 -14.429688 1.9375 -16.921875 C 1.9375 -19.441406 2.375 -21.785156 3.25 -23.953125 C 4.125 -26.117188 5.351562 -28.003906 6.9375 -29.609375 C 8.519531 -31.210938 10.378906 -32.457031 12.515625 -33.34375 C 14.648438 -34.226562 16.960938 -34.671875 19.453125 -34.671875 C 22.203125 -34.671875 24.722656 -34.101562 27.015625 -32.96875 C 29.304688 -31.84375 31.226562 -30.257812 32.78125 -28.21875 C 34.332031 -26.1875 35.367188 -23.828125 35.890625 -21.140625 L 28.515625 -21.140625 C 27.835938 -23.148438 26.691406 -24.742188 25.078125 -25.921875 C 23.460938 -27.097656 21.585938 -27.6875 19.453125 -27.6875 C 17.546875 -27.6875 15.832031 -27.207031 14.3125 -26.25 C 12.789062 -25.300781 11.582031 -24.019531 10.6875 -22.40625 C 9.800781 -20.789062 9.359375 -18.960938 9.359375 -16.921875 C 9.359375 -14.890625 9.800781 -13.070312 10.6875 -11.46875 C 11.582031 -9.863281 12.789062 -8.59375 14.3125 -7.65625 C 15.832031 -6.71875 17.546875 -6.25 19.453125 -6.25 C 21.679688 -6.25 23.601562 -6.878906 25.21875 -8.140625 C 26.832031 -9.410156 27.945312 -11.125 28.5625 -13.28125 L 35.984375 -13.28125 C 35.472656 -10.46875 34.445312 -8.007812 32.90625 -5.90625 C 31.375 -3.8125 29.453125 -2.179688 27.140625 -1.015625 C 24.828125 0.148438 22.265625 0.734375 19.453125 0.734375 Z M 19.453125 0.734375 "/></g></g></g><g fill="#000b3b" fill-opacity="1"><g transform="translate(77.371856, 263.751165)"><g><path d="M 28.8125 -13.1875 C 28.8125 -12.507812 28.757812 -11.816406 28.65625 -11.109375 L 8.875 -11.109375 C 9.164062 -9.328125 9.875 -7.957031 11 -7 C 12.132812 -6.050781 13.5625 -5.578125 15.28125 -5.578125 C 16.507812 -5.578125 17.609375 -5.84375 18.578125 -6.375 C 19.546875 -6.90625 20.289062 -7.640625 20.8125 -8.578125 L 28.28125 -8.578125 C 27.3125 -5.734375 25.660156 -3.46875 23.328125 -1.78125 C 21.003906 -0.101562 18.320312 0.734375 15.28125 0.734375 C 12.6875 0.734375 10.363281 0.128906 8.3125 -1.078125 C 6.257812 -2.296875 4.644531 -3.945312 3.46875 -6.03125 C 2.289062 -8.125 1.703125 -10.476562 1.703125 -13.09375 C 1.703125 -15.71875 2.289062 -18.070312 3.46875 -20.15625 C 4.644531 -22.238281 6.257812 -23.882812 8.3125 -25.09375 C 10.363281 -26.3125 12.6875 -26.921875 15.28125 -26.921875 C 17.957031 -26.921875 20.3125 -26.296875 22.34375 -25.046875 C 24.382812 -23.804688 25.972656 -22.148438 27.109375 -20.078125 C 28.242188 -18.003906 28.8125 -15.707031 28.8125 -13.1875 Z M 15.28125 -20.90625 C 13.695312 -20.90625 12.363281 -20.46875 11.28125 -19.59375 C 10.195312 -18.71875 9.457031 -17.503906 9.0625 -15.953125 L 21.734375 -15.953125 C 20.691406 -19.253906 18.539062 -20.90625 15.28125 -20.90625 Z M 15.28125 -20.90625 "/></g></g></g><g fill="#000b3b" fill-opacity="1"><g transform="translate(107.824949, 263.751165)"><g><path d="M 18.328125 -26.828125 C 21.304688 -26.828125 23.660156 -25.832031 25.390625 -23.84375 C 27.117188 -21.851562 27.984375 -19.191406 27.984375 -15.859375 L 27.984375 0 L 20.90625 0 L 20.90625 -14.75 C 20.90625 -18.65625 19.382812 -20.609375 16.34375 -20.609375 C 14.53125 -20.609375 13.097656 -19.992188 12.046875 -18.765625 C 10.992188 -17.535156 10.46875 -15.875 10.46875 -13.78125 L 10.46875 0 L 3.390625 0 L 3.390625 -26.1875 L 8.25 -26.1875 L 9.65625 -22.9375 C 10.625 -24.132812 11.867188 -25.082031 13.390625 -25.78125 C 14.910156 -26.476562 16.554688 -26.828125 18.328125 -26.828125 Z M 18.328125 -26.828125 "/></g></g></g><g fill="#000b3b" fill-opacity="1"><g transform="translate(138.908439, 263.751165)"><g><path d="M 12.703125 0.734375 C 10.503906 0.734375 8.582031 0.347656 6.9375 -0.421875 C 5.289062 -1.203125 4.003906 -2.296875 3.078125 -3.703125 C 2.160156 -5.109375 1.703125 -6.753906 1.703125 -8.640625 L 8.578125 -8.640625 C 8.617188 -7.472656 9.039062 -6.597656 9.84375 -6.015625 C 10.65625 -5.429688 11.691406 -5.140625 12.953125 -5.140625 C 13.953125 -5.140625 14.820312 -5.359375 15.5625 -5.796875 C 16.3125 -6.234375 16.6875 -6.890625 16.6875 -7.765625 C 16.6875 -8.671875 16.191406 -9.304688 15.203125 -9.671875 C 14.210938 -10.046875 13.023438 -10.347656 11.640625 -10.578125 C 10.609375 -10.734375 9.53125 -10.957031 8.40625 -11.25 C 7.289062 -11.539062 6.265625 -11.960938 5.328125 -12.515625 C 4.390625 -13.066406 3.625 -13.828125 3.03125 -14.796875 C 2.4375 -15.765625 2.140625 -17.023438 2.140625 -18.578125 C 2.140625 -20.222656 2.582031 -21.675781 3.46875 -22.9375 C 4.351562 -24.195312 5.578125 -25.175781 7.140625 -25.875 C 8.710938 -26.570312 10.566406 -26.921875 12.703125 -26.921875 C 14.804688 -26.921875 16.640625 -26.554688 18.203125 -25.828125 C 19.773438 -25.097656 21 -24.078125 21.875 -22.765625 C 22.75 -21.460938 23.1875 -19.9375 23.1875 -18.1875 L 16.4375 -18.1875 C 16.4375 -19.21875 16.085938 -19.992188 15.390625 -20.515625 C 14.703125 -21.035156 13.742188 -21.296875 12.515625 -21.296875 C 11.410156 -21.296875 10.550781 -21.0625 9.9375 -20.59375 C 9.320312 -20.125 9.015625 -19.515625 9.015625 -18.765625 C 9.015625 -17.890625 9.5 -17.289062 10.46875 -16.96875 C 11.445312 -16.644531 12.613281 -16.375 13.96875 -16.15625 C 15.03125 -15.957031 16.128906 -15.71875 17.265625 -15.4375 C 18.398438 -15.164062 19.453125 -14.753906 20.421875 -14.203125 C 21.390625 -13.660156 22.171875 -12.898438 22.765625 -11.921875 C 23.367188 -10.953125 23.671875 -9.675781 23.671875 -8.09375 C 23.671875 -6.320312 23.21875 -4.769531 22.3125 -3.4375 C 21.40625 -2.113281 20.125 -1.085938 18.46875 -0.359375 C 16.820312 0.367188 14.898438 0.734375 12.703125 0.734375 Z M 12.703125 0.734375 "/></g></g></g><g fill="#000b3b" fill-opacity="1"><g transform="translate(164.366838, 263.751165)"><g><path d="M 15.859375 0.734375 C 13.140625 0.734375 10.710938 0.128906 8.578125 -1.078125 C 6.453125 -2.296875 4.773438 -3.945312 3.546875 -6.03125 C 2.316406 -8.125 1.703125 -10.476562 1.703125 -13.09375 C 1.703125 -15.75 2.316406 -18.117188 3.546875 -20.203125 C 4.773438 -22.285156 6.453125 -23.925781 8.578125 -25.125 C 10.710938 -26.320312 13.140625 -26.921875 15.859375 -26.921875 C 18.546875 -26.921875 20.953125 -26.320312 23.078125 -25.125 C 25.210938 -23.925781 26.894531 -22.285156 28.125 -20.203125 C 29.351562 -18.117188 29.96875 -15.75 29.96875 -13.09375 C 29.96875 -10.476562 29.351562 -8.125 28.125 -6.03125 C 26.894531 -3.945312 25.210938 -2.296875 23.078125 -1.078125 C 20.953125 0.128906 18.546875 0.734375 15.859375 0.734375 Z M 15.859375 -5.921875 C 17.898438 -5.921875 19.566406 -6.582031 20.859375 -7.90625 C 22.148438 -9.226562 22.796875 -10.957031 22.796875 -13.09375 C 22.796875 -15.226562 22.148438 -16.957031 20.859375 -18.28125 C 19.566406 -19.601562 17.898438 -20.265625 15.859375 -20.265625 C 13.785156 -20.265625 12.101562 -19.601562 10.8125 -18.28125 C 9.519531 -16.957031 8.875 -15.226562 8.875 -13.09375 C 8.875 -10.957031 9.519531 -9.226562 10.8125 -7.90625 C 12.101562 -6.582031 13.785156 -5.921875 15.859375 -5.921875 Z M 15.859375 -5.921875 "/></g></g></g><g fill="#000b3b" fill-opacity="1"><g transform="translate(196.032237, 263.751165)"><g><path d="M 16.78125 -26.328125 L 19.109375 -26.328125 L 19.109375 -19.640625 L 16.046875 -19.640625 C 14.046875 -19.640625 12.613281 -19.171875 11.75 -18.234375 C 10.894531 -17.296875 10.46875 -15.757812 10.46875 -13.625 L 10.46875 0 L 3.390625 0 L 3.390625 -26.1875 L 7.953125 -26.1875 L 9.21875 -22.984375 C 10.988281 -25.210938 13.507812 -26.328125 16.78125 -26.328125 Z M 16.78125 -26.328125 "/></g></g></g><g fill="#000b3b" fill-opacity="1"><g transform="translate(215.768556, 263.751165)"><g><path d="M 19.453125 0.734375 C 16.960938 0.734375 14.648438 0.289062 12.515625 -0.59375 C 10.378906 -1.488281 8.519531 -2.734375 6.9375 -4.328125 C 5.351562 -5.929688 4.125 -7.804688 3.25 -9.953125 C 2.375 -12.109375 1.9375 -14.429688 1.9375 -16.921875 C 1.9375 -19.441406 2.375 -21.785156 3.25 -23.953125 C 4.125 -26.117188 5.351562 -28.003906 6.9375 -29.609375 C 8.519531 -31.210938 10.378906 -32.457031 12.515625 -33.34375 C 14.648438 -34.226562 16.960938 -34.671875 19.453125 -34.671875 C 22.203125 -34.671875 24.722656 -34.101562 27.015625 -32.96875 C 29.304688 -31.84375 31.226562 -30.257812 32.78125 -28.21875 C 34.332031 -26.1875 35.367188 -23.828125 35.890625 -21.140625 L 28.515625 -21.140625 C 27.835938 -23.148438 26.691406 -24.742188 25.078125 -25.921875 C 23.460938 -27.097656 21.585938 -27.6875 19.453125 -27.6875 C 17.546875 -27.6875 15.832031 -27.207031 14.3125 -26.25 C 12.789062 -25.300781 11.582031 -24.019531 10.6875 -22.40625 C 9.800781 -20.789062 9.359375 -18.960938 9.359375 -16.921875 C 9.359375 -14.890625 9.800781 -13.070312 10.6875 -11.46875 C 11.582031 -9.863281 12.789062 -8.59375 14.3125 -7.65625 C 15.832031 -6.71875 17.546875 -6.25 19.453125 -6.25 C 21.679688 -6.25 23.601562 -6.878906 25.21875 -8.140625 C 26.832031 -9.410156 27.945312 -11.125 28.5625 -13.28125 L 35.984375 -13.28125 C 35.472656 -10.46875 34.445312 -8.007812 32.90625 -5.90625 C 31.375 -3.8125 29.453125 -2.179688 27.140625 -1.015625 C 24.828125 0.148438 22.265625 0.734375 19.453125 0.734375 Z M 19.453125 0.734375 "/></g></g></g><g fill="#000b3b" fill-opacity="1"><g transform="translate(253.156024, 263.751165)"><g><path d="M 15.859375 0.734375 C 13.140625 0.734375 10.710938 0.128906 8.578125 -1.078125 C 6.453125 -2.296875 4.773438 -3.945312 3.546875 -6.03125 C 2.316406 -8.125 1.703125 -10.476562 1.703125 -13.09375 C 1.703125 -15.75 2.316406 -18.117188 3.546875 -20.203125 C 4.773438 -22.285156 6.453125 -23.925781 8.578125 -25.125 C 10.710938 -26.320312 13.140625 -26.921875 15.859375 -26.921875 C 18.546875 -26.921875 20.953125 -26.320312 23.078125 -25.125 C 25.210938 -23.925781 26.894531 -22.285156 28.125 -20.203125 C 29.351562 -18.117188 29.96875 -15.75 29.96875 -13.09375 C 29.96875 -10.476562 29.351562 -8.125 28.125 -6.03125 C 26.894531 -3.945312 25.210938 -2.296875 23.078125 -1.078125 C 20.953125 0.128906 18.546875 0.734375 15.859375 0.734375 Z M 15.859375 -5.921875 C 17.898438 -5.921875 19.566406 -6.582031 20.859375 -7.90625 C 22.148438 -9.226562 22.796875 -10.957031 22.796875 -13.09375 C 22.796875 -15.226562 22.148438 -16.957031 20.859375 -18.28125 C 19.566406 -19.601562 17.898438 -20.265625 15.859375 -20.265625 C 13.785156 -20.265625 12.101562 -19.601562 10.8125 -18.28125 C 9.519531 -16.957031 8.875 -15.226562 8.875 -13.09375 C 8.875 -10.957031 9.519531 -9.226562 10.8125 -7.90625 C 12.101562 -6.582031 13.785156 -5.921875 15.859375 -5.921875 Z M 15.859375 -5.921875 "/></g></g></g><g fill="#000b3b" fill-opacity="1"><g transform="translate(284.821435, 263.751165)"><g><path d="M 16.78125 -26.328125 L 19.109375 -26.328125 L 19.109375 -19.640625 L 16.046875 -19.640625 C 14.046875 -19.640625 12.613281 -19.171875 11.75 -18.234375 C 10.894531 -17.296875 10.46875 -15.757812 10.46875 -13.625 L 10.46875 0 L 3.390625 0 L 3.390625 -26.1875 L 7.953125 -26.1875 L 9.21875 -22.984375 C 10.988281 -25.210938 13.507812 -26.328125 16.78125 -26.328125 Z M 16.78125 -26.328125 "/></g></g></g><g fill="#000b3b" fill-opacity="1"><g transform="translate(304.557754, 263.751165)"><g><path d="M 28.8125 -13.1875 C 28.8125 -12.507812 28.757812 -11.816406 28.65625 -11.109375 L 8.875 -11.109375 C 9.164062 -9.328125 9.875 -7.957031 11 -7 C 12.132812 -6.050781 13.5625 -5.578125 15.28125 -5.578125 C 16.507812 -5.578125 17.609375 -5.84375 18.578125 -6.375 C 19.546875 -6.90625 20.289062 -7.640625 20.8125 -8.578125 L 28.28125 -8.578125 C 27.3125 -5.734375 25.660156 -3.46875 23.328125 -1.78125 C 21.003906 -0.101562 18.320312 0.734375 15.28125 0.734375 C 12.6875 0.734375 10.363281 0.128906 8.3125 -1.078125 C 6.257812 -2.296875 4.644531 -3.945312 3.46875 -6.03125 C 2.289062 -8.125 1.703125 -10.476562 1.703125 -13.09375 C 1.703125 -15.71875 2.289062 -18.070312 3.46875 -20.15625 C 4.644531 -22.238281 6.257812 -23.882812 8.3125 -25.09375 C 10.363281 -26.3125 12.6875 -26.921875 15.28125 -26.921875 C 17.957031 -26.921875 20.3125 -26.296875 22.34375 -25.046875 C 24.382812 -23.804688 25.972656 -22.148438 27.109375 -20.078125 C 28.242188 -18.003906 28.8125 -15.707031 28.8125 -13.1875 Z M 15.28125 -20.90625 C 13.695312 -20.90625 12.363281 -20.46875 11.28125 -19.59375 C 10.195312 -18.71875 9.457031 -17.503906 9.0625 -15.953125 L 21.734375 -15.953125 C 20.691406 -19.253906 18.539062 -20.90625 15.28125 -20.90625 Z M 15.28125 -20.90625 "/></g></g></g><g fill="#ad7b30" fill-opacity="1"><g transform="translate(81.686755, 298.065098)"><g><path d="M 3.75 0.203125 C 3.082031 0.203125 2.488281 0.0546875 1.96875 -0.234375 C 1.445312 -0.523438 1.039062 -0.921875 0.75 -1.421875 C 0.457031 -1.929688 0.3125 -2.519531 0.3125 -3.1875 L 0.3125 -3.53125 L 2.3125 -3.53125 L 2.3125 -3.296875 C 2.3125 -2.816406 2.441406 -2.429688 2.703125 -2.140625 C 2.960938 -1.847656 3.3125 -1.703125 3.75 -1.703125 C 4.164062 -1.703125 4.5 -1.84375 4.75 -2.125 C 5.007812 -2.414062 5.140625 -2.804688 5.140625 -3.296875 L 5.140625 -9.34375 L 7.140625 -9.34375 L 7.140625 -3.1875 C 7.140625 -2.519531 7 -1.929688 6.71875 -1.421875 C 6.4375 -0.921875 6.039062 -0.523438 5.53125 -0.234375 C 5.019531 0.0546875 4.425781 0.203125 3.75 0.203125 Z M 3.75 0.203125 "/></g></g></g><g fill="#ad7b30" fill-opacity="1"><g transform="translate(93.823064, 298.065098)"><g><path d="M 7.28125 0 L 6.625 -1.78125 L 2.90625 -1.78125 L 2.25 0 L 0.125 0 L 3.78125 -9.34375 L 5.6875 -9.34375 L 9.46875 0 Z M 4.75 -6.875 L 3.546875 -3.546875 L 5.984375 -3.546875 Z M 4.75 -6.875 "/></g></g></g><g fill="#ad7b30" fill-opacity="1"><g transform="translate(107.414284, 298.065098)"><g><path d="M 7 -9.34375 L 9.203125 -9.34375 L 5.671875 0 L 3.765625 0 L 0.109375 -9.34375 L 2.34375 -9.34375 L 4.703125 -2.734375 Z M 7 -9.34375 "/></g></g></g><g fill="#ad7b30" fill-opacity="1"><g transform="translate(120.791935, 298.065098)"><g><path d="M 7.28125 0 L 6.625 -1.78125 L 2.90625 -1.78125 L 2.25 0 L 0.125 0 L 3.78125 -9.34375 L 5.6875 -9.34375 L 9.46875 0 Z M 4.75 -6.875 L 3.546875 -3.546875 L 5.984375 -3.546875 Z M 4.75 -6.875 "/></g></g></g><g fill="#ad7b30" fill-opacity="1"><g transform="translate(134.383155, 298.065098)"><g><path d="M 4.171875 0.1875 C 3.453125 0.1875 2.820312 0.0546875 2.28125 -0.203125 C 1.738281 -0.460938 1.3125 -0.832031 1 -1.3125 C 0.695312 -1.789062 0.546875 -2.363281 0.546875 -3.03125 L 2.59375 -3.03125 C 2.59375 -2.570312 2.75 -2.234375 3.0625 -2.015625 C 3.382812 -1.804688 3.75 -1.703125 4.15625 -1.703125 C 4.414062 -1.703125 4.65625 -1.742188 4.875 -1.828125 C 5.101562 -1.910156 5.289062 -2.03125 5.4375 -2.1875 C 5.59375 -2.351562 5.671875 -2.554688 5.671875 -2.796875 C 5.671875 -3.035156 5.582031 -3.222656 5.40625 -3.359375 C 5.238281 -3.492188 5.007812 -3.601562 4.71875 -3.6875 C 4.4375 -3.78125 4.128906 -3.867188 3.796875 -3.953125 C 3.441406 -4.035156 3.082031 -4.132812 2.71875 -4.25 C 2.351562 -4.363281 2.015625 -4.515625 1.703125 -4.703125 C 1.398438 -4.898438 1.15625 -5.160156 0.96875 -5.484375 C 0.78125 -5.804688 0.6875 -6.21875 0.6875 -6.71875 C 0.6875 -7.613281 0.988281 -8.304688 1.59375 -8.796875 C 2.207031 -9.285156 3.035156 -9.53125 4.078125 -9.53125 C 5.140625 -9.53125 5.960938 -9.257812 6.546875 -8.71875 C 7.140625 -8.175781 7.4375 -7.441406 7.4375 -6.515625 L 5.4375 -6.515625 C 5.4375 -6.921875 5.289062 -7.21875 5 -7.40625 C 4.71875 -7.59375 4.390625 -7.6875 4.015625 -7.6875 C 3.691406 -7.6875 3.390625 -7.613281 3.109375 -7.46875 C 2.835938 -7.332031 2.703125 -7.113281 2.703125 -6.8125 C 2.703125 -6.59375 2.78125 -6.414062 2.9375 -6.28125 C 3.101562 -6.15625 3.320312 -6.050781 3.59375 -5.96875 C 3.863281 -5.882812 4.164062 -5.800781 4.5 -5.71875 C 4.851562 -5.625 5.21875 -5.515625 5.59375 -5.390625 C 5.96875 -5.273438 6.316406 -5.113281 6.640625 -4.90625 C 6.960938 -4.707031 7.222656 -4.4375 7.421875 -4.09375 C 7.617188 -3.757812 7.71875 -3.332031 7.71875 -2.8125 C 7.71875 -2.132812 7.554688 -1.570312 7.234375 -1.125 C 6.910156 -0.6875 6.476562 -0.359375 5.9375 -0.140625 C 5.40625 0.078125 4.816406 0.1875 4.171875 0.1875 Z M 4.171875 0.1875 "/></g></g></g><g fill="#ad7b30" fill-opacity="1"><g transform="translate(146.652948, 298.065098)"><g><path d="M 5.359375 0.203125 C 4.671875 0.203125 4.03125 0.0820312 3.4375 -0.15625 C 2.851562 -0.40625 2.34375 -0.75 1.90625 -1.1875 C 1.46875 -1.632812 1.128906 -2.15625 0.890625 -2.75 C 0.648438 -3.34375 0.53125 -3.976562 0.53125 -4.65625 C 0.53125 -5.351562 0.648438 -6 0.890625 -6.59375 C 1.128906 -7.195312 1.46875 -7.71875 1.90625 -8.15625 C 2.34375 -8.59375 2.851562 -8.929688 3.4375 -9.171875 C 4.03125 -9.421875 4.671875 -9.546875 5.359375 -9.546875 C 6.117188 -9.546875 6.8125 -9.390625 7.4375 -9.078125 C 8.070312 -8.765625 8.601562 -8.328125 9.03125 -7.765625 C 9.457031 -7.210938 9.742188 -6.566406 9.890625 -5.828125 L 7.859375 -5.828125 C 7.671875 -6.378906 7.351562 -6.816406 6.90625 -7.140625 C 6.457031 -7.460938 5.941406 -7.625 5.359375 -7.625 C 4.828125 -7.625 4.351562 -7.492188 3.9375 -7.234375 C 3.519531 -6.972656 3.1875 -6.617188 2.9375 -6.171875 C 2.695312 -5.722656 2.578125 -5.21875 2.578125 -4.65625 C 2.578125 -4.101562 2.695312 -3.601562 2.9375 -3.15625 C 3.1875 -2.71875 3.519531 -2.367188 3.9375 -2.109375 C 4.351562 -1.847656 4.828125 -1.71875 5.359375 -1.71875 C 5.972656 -1.71875 6.5 -1.890625 6.9375 -2.234375 C 7.382812 -2.585938 7.695312 -3.0625 7.875 -3.65625 L 9.90625 -3.65625 C 9.769531 -2.882812 9.488281 -2.207031 9.0625 -1.625 C 8.644531 -1.050781 8.113281 -0.601562 7.46875 -0.28125 C 6.832031 0.0390625 6.128906 0.203125 5.359375 0.203125 Z M 5.359375 0.203125 "/></g></g></g><g fill="#ad7b30" fill-opacity="1"><g transform="translate(160.951596, 298.065098)"><g><path d="M 6.21875 0 L 4.390625 -3.1875 L 3.09375 -3.1875 L 3.09375 0 L 1.0625 0 L 1.0625 -9.34375 L 4.84375 -9.34375 C 5.46875 -9.34375 6.023438 -9.207031 6.515625 -8.9375 C 7.003906 -8.675781 7.390625 -8.3125 7.671875 -7.84375 C 7.960938 -7.382812 8.109375 -6.851562 8.109375 -6.25 C 8.109375 -5.644531 7.953125 -5.101562 7.640625 -4.625 C 7.335938 -4.15625 6.925781 -3.796875 6.40625 -3.546875 L 8.484375 0 Z M 3.09375 -7.484375 L 3.09375 -5.0625 L 4.71875 -5.0625 C 5.132812 -5.0625 5.460938 -5.175781 5.703125 -5.40625 C 5.941406 -5.632812 6.0625 -5.921875 6.0625 -6.265625 C 6.0625 -6.617188 5.941406 -6.910156 5.703125 -7.140625 C 5.460938 -7.367188 5.132812 -7.484375 4.71875 -7.484375 Z M 3.09375 -7.484375 "/></g></g></g><g fill="#ad7b30" fill-opacity="1"><g transform="translate(173.78199, 298.065098)"><g><path d="M 1.0625 0 L 1.0625 -9.34375 L 3.09375 -9.34375 L 3.09375 0 Z M 1.0625 0 "/></g></g></g><g fill="#ad7b30" fill-opacity="1"><g transform="translate(181.954021, 298.065098)"><g><path d="M 4.65625 -9.34375 C 5.289062 -9.34375 5.851562 -9.203125 6.34375 -8.921875 C 6.84375 -8.648438 7.238281 -8.269531 7.53125 -7.78125 C 7.820312 -7.289062 7.96875 -6.738281 7.96875 -6.125 C 7.96875 -5.507812 7.820312 -4.957031 7.53125 -4.46875 C 7.25 -3.988281 6.859375 -3.609375 6.359375 -3.328125 C 5.859375 -3.054688 5.289062 -2.921875 4.65625 -2.921875 L 3.09375 -2.921875 L 3.09375 0 L 1.0625 0 L 1.0625 -9.34375 Z M 4.578125 -4.796875 C 4.984375 -4.796875 5.304688 -4.921875 5.546875 -5.171875 C 5.796875 -5.429688 5.921875 -5.75 5.921875 -6.125 C 5.921875 -6.519531 5.796875 -6.84375 5.546875 -7.09375 C 5.304688 -7.351562 4.984375 -7.484375 4.578125 -7.484375 L 3.09375 -7.484375 L 3.09375 -4.796875 Z M 4.578125 -4.796875 "/></g></g></g><g fill="#ad7b30" fill-opacity="1"><g transform="translate(194.263858, 298.065098)"><g><path d="M 7.515625 -9.34375 L 7.515625 -7.46875 L 4.921875 -7.46875 L 4.921875 0 L 2.890625 0 L 2.890625 -7.46875 L 0.296875 -7.46875 L 0.296875 -9.34375 Z M 7.515625 -9.34375 "/></g></g></g><g fill="#ad7b30" fill-opacity="1"><g transform="translate(206.066481, 298.065098)"><g/></g></g><g fill="#ad7b30" fill-opacity="1"><g transform="translate(213.264127, 298.065098)"><g><path d="M 3.09375 -1.890625 L 6.671875 -1.890625 L 6.671875 0 L 1.0625 0 L 1.0625 -9.34375 L 3.09375 -9.34375 Z M 3.09375 -1.890625 "/></g></g></g><g fill="#ad7b30" fill-opacity="1"><g transform="translate(224.239182, 298.065098)"><g><path d="M 1.0625 0 L 1.0625 -9.34375 L 3.09375 -9.34375 L 3.09375 0 Z M 1.0625 0 "/></g></g></g><g fill="#ad7b30" fill-opacity="1"><g transform="translate(232.411213, 298.065098)"><g><path d="M 6.6875 -4.921875 C 7.101562 -4.710938 7.421875 -4.414062 7.640625 -4.03125 C 7.867188 -3.644531 7.984375 -3.203125 7.984375 -2.703125 C 7.984375 -2.203125 7.851562 -1.742188 7.59375 -1.328125 C 7.332031 -0.921875 6.972656 -0.597656 6.515625 -0.359375 C 6.066406 -0.117188 5.578125 0 5.046875 0 L 1.0625 0 L 1.0625 -9.34375 L 4.9375 -9.34375 C 5.476562 -9.34375 5.957031 -9.238281 6.375 -9.03125 C 6.800781 -8.820312 7.132812 -8.535156 7.375 -8.171875 C 7.625 -7.804688 7.75 -7.398438 7.75 -6.953125 C 7.75 -6.546875 7.65625 -6.164062 7.46875 -5.8125 C 7.28125 -5.457031 7.019531 -5.160156 6.6875 -4.921875 Z M 5.78125 -6.625 C 5.78125 -6.914062 5.6875 -7.15625 5.5 -7.34375 C 5.3125 -7.53125 5.0625 -7.625 4.75 -7.625 L 3.0625 -7.625 L 3.0625 -5.640625 L 4.75 -5.640625 C 5.0625 -5.640625 5.3125 -5.734375 5.5 -5.921875 C 5.6875 -6.109375 5.78125 -6.34375 5.78125 -6.625 Z M 4.84375 -1.859375 C 5.1875 -1.859375 5.457031 -1.953125 5.65625 -2.140625 C 5.851562 -2.335938 5.953125 -2.59375 5.953125 -2.90625 C 5.953125 -3.207031 5.851562 -3.457031 5.65625 -3.65625 C 5.457031 -3.851562 5.1875 -3.953125 4.84375 -3.953125 L 3.0625 -3.953125 L 3.0625 -1.859375 Z M 4.84375 -1.859375 "/></g></g></g><g fill="#ad7b30" fill-opacity="1"><g transform="translate(244.988006, 298.065098)"><g><path d="M 6.21875 0 L 4.390625 -3.1875 L 3.09375 -3.1875 L 3.09375 0 L 1.0625 0 L 1.0625 -9.34375 L 4.84375 -9.34375 C 5.46875 -9.34375 6.023438 -9.207031 6.515625 -8.9375 C 7.003906 -8.675781 7.390625 -8.3125 7.671875 -7.84375 C 7.960938 -7.382812 8.109375 -6.851562 8.109375 -6.25 C 8.109375 -5.644531 7.953125 -5.101562 7.640625 -4.625 C 7.335938 -4.15625 6.925781 -3.796875 6.40625 -3.546875 L 8.484375 0 Z M 3.09375 -7.484375 L 3.09375 -5.0625 L 4.71875 -5.0625 C 5.132812 -5.0625 5.460938 -5.175781 5.703125 -5.40625 C 5.941406 -5.632812 6.0625 -5.921875 6.0625 -6.265625 C 6.0625 -6.617188 5.941406 -6.910156 5.703125 -7.140625 C 5.460938 -7.367188 5.132812 -7.484375 4.71875 -7.484375 Z M 3.09375 -7.484375 "/></g></g></g><g fill="#ad7b30" fill-opacity="1"><g transform="translate(257.8184, 298.065098)"><g><path d="M 7.28125 0 L 6.625 -1.78125 L 2.90625 -1.78125 L 2.25 0 L 0.125 0 L 3.78125 -9.34375 L 5.6875 -9.34375 L 9.46875 0 Z M 4.75 -6.875 L 3.546875 -3.546875 L 5.984375 -3.546875 Z M 4.75 -6.875 "/></g></g></g><g fill="#ad7b30" fill-opacity="1"><g transform="translate(271.40962, 298.065098)"><g><path d="M 6.21875 0 L 4.390625 -3.1875 L 3.09375 -3.1875 L 3.09375 0 L 1.0625 0 L 1.0625 -9.34375 L 4.84375 -9.34375 C 5.46875 -9.34375 6.023438 -9.207031 6.515625 -8.9375 C 7.003906 -8.675781 7.390625 -8.3125 7.671875 -7.84375 C 7.960938 -7.382812 8.109375 -6.851562 8.109375 -6.25 C 8.109375 -5.644531 7.953125 -5.101562 7.640625 -4.625 C 7.335938 -4.15625 6.925781 -3.796875 6.40625 -3.546875 L 8.484375 0 Z M 3.09375 -7.484375 L 3.09375 -5.0625 L 4.71875 -5.0625 C 5.132812 -5.0625 5.460938 -5.175781 5.703125 -5.40625 C 5.941406 -5.632812 6.0625 -5.921875 6.0625 -6.265625 C 6.0625 -6.617188 5.941406 -6.910156 5.703125 -7.140625 C 5.460938 -7.367188 5.132812 -7.484375 4.71875 -7.484375 Z M 3.09375 -7.484375 "/></g></g></g><g fill="#ad7b30" fill-opacity="1"><g transform="translate(284.240025, 298.065098)"><g><path d="M 8.859375 -9.34375 L 5.578125 -3.78125 L 5.578125 0 L 3.484375 0 L 3.484375 -3.796875 L 0.234375 -9.34375 L 2.375 -9.34375 L 4.546875 -5.609375 L 6.703125 -9.34375 Z M 8.859375 -9.34375 "/></g></g></g></svg>